<svg width="144" height="144" viewBox="0 0 144 144" fill="none" xmlns="http://www.w3.org/2000/svg">
<rect width="144" height="144" fill="url(#paint0_linear_4639_27672)"/>
<path d="M56.1336 42.6541V39.7694C56.1336 30.7312 63.4609 23.4038 72.499 23.4038C77.018 23.4038 81.1093 25.2368 84.0704 28.1978C87.0314 31.1589 88.8643 35.2503 88.8643 39.7694V74.867M75.3836 56.135H39.7682C35.2492 56.135 31.1578 57.9679 28.1968 60.929C25.0983 64.0275 23.2348 68.3655 23.4159 73.1355C23.7498 81.9577 31.1513 88.8661 39.9777 88.8661C48.9001 88.8661 56.1336 81.6325 56.1336 72.71V69.6158M88.8643 102.347V105.022C88.8643 114.023 81.6854 121.495 72.6866 121.595C68.0934 121.645 63.93 119.804 60.9275 116.801C57.9665 113.84 56.1336 109.749 56.1336 105.23C56.1336 96.1913 63.4609 88.8639 72.499 88.8639H105.23C109.749 88.8639 113.84 87.031 116.801 84.0699C119.762 81.1088 121.645 76.904 121.595 72.3107C121.495 63.3118 114.021 56.1328 105.022 56.1328H102.347" stroke="white" stroke-width="7.68461" stroke-linecap="round"/>
<defs>
<linearGradient id="paint0_linear_4639_27672" x1="101.17" y1="43.8704" x2="92.217" y2="128.049" gradientUnits="userSpaceOnUse">
<stop stop-color="#8C5AE2"/>
<stop offset="1" stop-color="#4B4086"/>
</linearGradient>
</defs>
</svg>
